<?xml version="1.0" encoding="UTF-8" standalone="no"?>
<svg
   xmlns:dc="http://purl.org/dc/elements/1.1/"
   xmlns:cc="http://creativecommons.org/ns#"
   xmlns:rdf="http://www.w3.org/1999/02/22-rdf-syntax-ns#"
   xmlns:svg="http://www.w3.org/2000/svg"
   xmlns="http://www.w3.org/2000/svg"
   xmlns:sodipodi="http://sodipodi.sourceforge.net/DTD/sodipodi-0.dtd"
   xmlns:inkscape="http://www.inkscape.org/namespaces/inkscape"
   width="150mm"
   height="82mm"
   id="svg2"
   version="1.1"
   inkscape:version="0.48.4 r9939"
   sodipodi:docname="stura_black.svg">
  <metadata
     id="metadata10">
    <rdf:RDF>
      <cc:Work
         rdf:about="">
        <dc:format>image/svg+xml</dc:format>
        <dc:type
           rdf:resource="http://purl.org/dc/dcmitype/StillImage" />
      </cc:Work>
    </rdf:RDF>
  </metadata>
  <defs
     id="defs8" />
  <sodipodi:namedview
     pagecolor="#ffffff"
     bordercolor="#666666"
     borderopacity="1"
     objecttolerance="10"
     gridtolerance="10"
     guidetolerance="10"
     inkscape:pageopacity="0"
     inkscape:pageshadow="2"
     inkscape:window-width="1855"
     inkscape:window-height="1056"
     id="namedview6"
     showgrid="false"
     inkscape:zoom="0.68862226"
     inkscape:cx="265.74802"
     inkscape:cy="145.27559"
     inkscape:window-x="65"
     inkscape:window-y="24"
     inkscape:window-maximized="1"
     inkscape:current-layer="svg2" />
  <path
     fill-rule="evenodd"
     d="m 3466.4329,1020.897 -20.15,10.797 -20.16,10.797 -19.44,10.082 -20.15,10.797 -18.72,10.801 -19.44,10.797 -18.72,10.078 -18.72,10.797 -17.99,10.801 -18,10.796 -18,10.801 -18,10.801 -18,10.797 -17.27,10.801 -17.28,11.515 -17.28,10.801 -17.28,11.516 -16.55,11.519 -16.56,10.801 -17.28,11.52 -16.56,12.234 -16.55,11.519 -16.57,11.52 -16.55,12.238 -15.84,12.239 -16.55,12.238 -16.57,12.961 -15.83,12.234 -16.56,12.961 -16.56,12.957 -15.84,12.961 -16.55,13.676 26.64,5.039 25.91,5.762 26.63,7.195 25.92,7.203 25.92,8.637 25.19,10.078 25.2,10.082 25.2,10.797 24.47,12.238 24.49,12.961 24.47,12.95 23.76,14.41 23.03,14.39 22.32,15.12 22.32,15.84 22.32,16.56 20.87,17.27 20.88,17.28 20.16,18 19.44,18 18.71,18.72 18.72,19.43 17.28,19.44 17.28,20.16 15.83,20.16 15.84,20.15 14.4,20.88 13.68,20.88 12.96,20.88 12.24,21.59 11.52,20.88 10.07,21.6 0,1.44 -1.44,1.43 -0.72,0.73 2.16,1.44 10.08,-83.51 6.48,-74.16 3.6,-69.83 1.44,-68.39 -0.72,-71.99 -2.88,-78.469 -4.32,-89.265 -5.76,-103.672 165.58,56.875 2.16,38.156 0.72,51.113 0.72,63.352 -1.44,73.43 -2.16,79.91 -3.6,84.23 -5.04,87.11 -7.2,87.83 -9.35,85.67 -10.81,81.34 -13.67,74.87 -15.84,66.23 -18,54.72 -21.59,41.75 -23.76,25.92 -27.36,7.92 -37.44,-2.88 -36.71,-5.04 -36.72,-6.48 -36.71,-7.92 -36.72,-9.36 -35.99,-10.79 -36,-12.96 -35.27,-13.68 -35.28,-15.12 -34.56,-16.56 -33.83,-17.99 -33.12,-18.72 -33.11,-20.16 -31.68,-20.88 -31.67,-22.32 -30.96,-23.03 -29.52,-23.76 -28.79,-24.48 -28.8,-25.19 -26.63,-25.92 -26.64,-26.64 -25.2,-27.35 -23.75,-28.08 -23.04,-28.07 -22.32,-28.08 -20.16,-29.52 -19.43,-28.79 -18,-29.52 -16.56,-29.52 -15.84,-29.51 -13.67,-30.24 -12.25,-29.51 -20.87,25.91 -21.6,26.64 -20.88,26.64 -21.59,26.63 -21.6,27.36 -21.6,27.36 -21.59,27.35 -21.6,27.36 -21.6,28.08 -22.32,28.07 -22.31,28.8 -22.32,28.07 -22.32,28.8 -23.03,29.52 -23.04,29.51 -23.76,29.52 25.2,18.72 26.64,19.44 27.35,19.43 28.8,20.16 28.79,21.6 30.24,21.59 29.51,22.32 30.24,22.32 29.52,23.76 30.23,23.75 29.52,24.48 28.08,25.91 28.08,25.2 27.35,26.64 25.92,26.63 24.48,28.08 23.03,28.08 21.6,28.79 19.44,28.8 17.99,30.24 15.12,30.23 12.96,30.96 10.8,31.68 7.92,32.39 4.32,32.4 2.16,33.11 -1.44,33.84 -5.04,34.56 -8.64,34.55 -12.96,35.27 -15.84,36 -20.87,36.72 -10.8,14.39 -14.4,12.96 -17.28,12.24 -19.43,10.8 -23.04,10.08 -25.2,8.64 -28.08,7.92 -29.51,6.48 -31.68,5.75 -33.83,4.32 -36,3.61 -36.72,2.88 -38.87,1.44 -39.59,0.72 -40.32,-0.72 -41.76,-0.73 -42.47,-2.87 -42.48,-2.88 -43.91,-4.32 -43.19,-5.04 -43.2,-5.76 -43.91,-6.48 -43.2,-7.2 -42.47,-8.64 -42.48,-9.36 -41.03,-9.36 -40.32,-10.8 -39.59,-11.52 -37.44,-12.23 -36.71,-12.96 -35.28,-13.68 -33.11,-14.4 -21.6,-244.77 22.31,18 20.88,16.56 20.16,15.12 19.44,12.96 18.72,12.23 18,10.8 17.27,10.08 17.28,9.36 16.56,7.92 16.56,7.92 17.27,6.48 16.56,6.48 16.56,6.47 18,5.77 17.28,5.75 18.71,5.76 -8.64,-619.84 -124.54,-23.04 5.76,-118.78 5.76,-107.27 4.32,-96.46 3.59,-86.39 1.45,-77.75 0,-69.11 -2.88,-60.48 -5.76,-53.99 -8.64,-47.51 -11.52,-41.04 -15.84,-35.996 -19.44,-31.675 -24.47,-27.356 -28.8,-24.476 -34.55,-21.598 -39.6,-20.16 -40.32,-12.957 -33.83,0.722 -27.36,13.676 -21.6,24.477 -16.55,34.558 -12.24,44.633 -7.92,53.274 -3.6,61.188 -1.44,68.4 1.44,73.43 2.88,79.18 5.04,82.79 5.76,86.39 5.76,88.55 5.76,89.99 5.04,89.99 -159.1,-31.68 -0.72,-17.99 -5.76,-49.68 -8.64,-74.87 -9.36,-93.58 -10.08,-105.83 -7.2,-113.03 -3.6,-111.58 2.16,-105.829 -23.76,-25.199 -23.03,-19.437 -20.88,-14.399 -20.16,-9.359 -19.44,-5.039 -17.27,-1.442 -16.56,2.883 -15.12,6.481 -14.4,9.355 -12.23,12.242 -12.25,14.395 -10.07,17.277 -9.36,18.719 -7.92,20.162 -7.2,21.6 -5.76,22.31 -16.56,85.67 -10.8,87.11 -4.32,89.99 0.73,93.59 7.19,97.9 12.24,102.23 18,108.7 23.76,115.91 2.16,0.72 3.59,1.44 5.05,0.72 7.2,1.44 7.91,1.44 9.36,1.44 10.8,1.44 11.52,1.44 12.24,1.44 12.96,1.44 13.68,1.44 14.39,0.72 14.4,0.72 15.12,0.72 14.4,0.72 15.12,0 25.91,156.94 -151.18,-32.4 9.36,40.32 10.08,38.15 10.8,37.44 10.8,35.99 11.51,36 12.25,35.99 12.95,36.72 12.96,38.16 -195.82,-87.11 -68.39,-256.29 -158.38002,-53.99 -15.11,-123.11 11.51,4.32 10.8,3.6 10.08,3.6 9.36,2.88 9.36,3.6 8.64,2.16 8.64,2.88 8.63,2.88 7.92,2.15 7.92,2.16 7.92,2.16 7.92,2.16 7.92002,2.88 8.64,2.16 7.92,2.16 8.64,2.89 -2.88,-8.64 -5.04,-23.04 -7.2,-36 -7.92,-48.23 -8.64002,-60.47 -7.92,-70.55 -7.2,-81.35 -5.76,-90.71 -10.08,23.76 -12.95,23.04 -15.84,23.03 -17.28,22.32 -19.44,22.31 -22.31,21.6 -23.04,21.59 -25.2,21.6 -25.91,20.88 -28.08,20.88 -28.8,20.16 -29.51,20.16 -30.24,20.15 -30.95,19.44 -31.68,19.44 -31.675,19.44 -31.676,18.71 -31.676,18.72 -31.676,18.72 -30.957,18.72 -30.234,17.99 -29.52,18 -28.796,18 -28.075,18 -25.914,17.27 -25.199,17.28 -23.758,17.28 -21.597,17.28 -19.438,17.28 -18,16.55 -15.117,17.28 -12.957,16.56 -11.52,18.72 -8.636,17.99 -5.758,18 -2.883,17.28 0,16.56 2.16,16.56 4.32,15.83 5.758,14.4 8.641,14.4 10.078,12.96 11.52,12.96 12.957,11.52 14.398,10.07 15.117,9.36 16.559,8.64 17.277,7.2 18,5.76 17.996,5.04 19.438,2.88 18.718,2.16 19.438,0.72 18.719,-1.44 18.715,-2.16 18,-4.32 17.996,-5.76 17.281,-7.92 15.836,-9.36 15.117,-11.52 13.68,-12.95 12.957,-15.12 10.801,-17.28 9.355,-19.44 197.25,86.39 -20.15,34.56 -23.04,31.67 -24.48,28.8 -27.35,25.2 -28.08,22.32 -30.236,19.43 -30.953,16.56 -32.398,13.68 -33.118,10.79 -33.832,7.93 -34.558,5.04 -34.555,2.87 -34.555,0 -34.554,-2.87 -34.555,-5.04 -33.117,-7.2 -33.117,-10.08 -32.395,-12.24 -30.957,-13.68 -29.516002,-16.56 -28.795998,-18.72 -25.918,-20.87 -24.47699981,-23.04 -22.31600019,-24.48 -20.157,-26.63 -18,-28.08 -14.398,-30.24 -12.238,-31.67 -8.641,-33.84 -5.754,-35.28 -1.441,-36.71 1.441,-38.15 5.754,-30.96 10.082,-30.96 15.117,-29.51 18.719,-28.8 22.316,-28.8 25.9140002,-27.35 28.8009998,-27.36 31.676,-26.63 34.554998,-26.64 35.992002,-26.64 38.16,-25.92 39.594,-25.19 40.312,-25.92 41.754,-25.19 41.039,-25.92 42.473,-25.2 41.035,-25.92 41.035,-25.91 40.313,-25.92 38.879,-26.63 37.431,-26.64 36,-27.36 33.12,-28.07 30.95,-28.08 28.08,-29.51 24.47,-29.52 20.88,-30.24 18,-31.67 12.96,-31.68 8.64,-33.84 3.59,-33.83 -1.44,-35.28 -5.76,-37.43 -9.35,-33.84 -12.24,-31.67 -14.4,-28.801 -17.28,-26.637 -20.16,-23.757 -22.31,-21.598 -24.48,-18.715 -26.63,-16.562 -28.08,-13.676 -30.24,-12.239 -31.673,-9.359 -33.836,-7.918 -34.559,-5.762 -35.273,-2.875 -37.438,-2.16 -37.433,0.719 -38.875,2.16 -38.875,3.598 -39.594,5.758 -39.598,7.203 -40.312,9.355 -40.317,10.078 -39.593002,12.239 -39.597998,13.679 -39.5939998,14.399 -38.8750002,15.84 -38.156,17.277 -36.715,18.719 -35.996,19.433 -35.273,20.879 -33.836,21.593 -217.4144,-209.491 82.0703,-36.715 79.9101,-32.395 77.027,-28.796 74.153,-24.477 71.273,-21.598 69.11,-17.996 66.233998,-15.121 64.070002,-11.516 61.196,-8.64 58.308,-5.758 56.156,-2.879 53.993,-0.719 51.113,2.157 48.234,5.039 46.074,6.48 43.912,9.36 41.76,10.796 38.87,12.243 36.72,14.394 34.55,16.559 31.68,17.277 30.23,18.719 27.36,20.156 25.2,20.879 23.03,22.316 20.88,23.039 18.72,23.758 15.84,23.754 14.39,24.481 12.24,25.191 10.08,24.477 7.92002,25.199 10.8,-35.274 12.24,-32.398 13.68,-30.953 15.83,-27.36 17.28,-24.476 19.44,-21.598 20.88,-17.277 23.03,-12.957 25.2,-8.641 27.36,-3.597 29.52,2.16 31.67,7.195 33.83,12.961 36.72,20.156 38.88,26.637 41.03,33.117 13.68,-35.996 15.12,-32.398 16.55,-29.512 17.28,-25.918 18,-22.316 18.72,-20.157 20.16,-16.562 20.15,-13.676 20.88,-11.52 22.32,-8.636 21.6,-5.762 23.03,-4.32 22.32,-1.442 23.04,0.723 23.75,2.16 23.04,5.039 23.76,5.762 23.04,7.914 23.75,9.363 23.04,11.516 22.31,12.238 22.33,12.957 22.31,15.121 21.6,15.117 20.87,16.559 20.16,17.277 20.16,18 18.72,17.996 18,19.438 16.55,18.715 15.84,19.437 15.12,19.442 13.68,-173.5 225.33,14.398 -12.96,111.586 -10.08,98.629 -7.92,90.707 -6.47,84.953 -5.76,83.51 -5.05,84.95 -5.03,91.42 -5.76,99.35 33.11,-47.51 33.84,-46.08 33.83,-46.07 33.84,-45.35 34.56,-44.64 34.55,-43.91 34.56,-43.2 35.27,-42.47 35.28,-41.04 35.27,-41.034 35.28,-40.313 35.28,-38.875 35.27,-38.156 34.56,-37.433 35.28,-36.715 34.55,-35.278 35.27,-34.554 33.84,-33.836 34.56,-32.395 33.83,-31.679 33.84,-30.957 33.11,-29.516 32.4,-28.797 32.39,-27.355 31.68,-26.637 31.67,-25.199 30.24,-24.477 30.24,-23.035 29.51,-21.598 28.8,-20.879 28.08,-19.437 27.35,-17.996 217.41,200.136 z m 4.32,1095.695 -36.71,-1.44 -36,-4.32 -35.27,-6.47 -34.56,-10.08 -34.55,-12.24 -33.12,-14.4 -32.39,-16.56 -32.4,-17.99 -30.24,-20.16 -30.23,-20.88 -28.8,-23.04 -27.36,-23.76 -26.63,-23.75 -25.2,-25.19 -24.47,-25.92 -22.33,-25.2 -21.59,-25.92 -19.44,-25.91 -18,-25.2 -16.55,-24.48 -15.12,-23.75 -13.68,-23.04 -11.52,-21.6 -9.36,-20.16 -7.91,-18.71 -5.76,-17.28 -3.6,-14.4 -1.45,-12.96 0.73,-10.8 2.88,-7.19 5.04,-5.04 7.19,-2.16 34.56,0 33.83,3.59 33.84,5.77 33.11,9.35 33.12,11.52 32.4,14.4 31.67,15.84 31.68,18 30.24,20.16 29.51,20.87 28.8,23.04 28.07,23.76 26.64,24.47 25.92,25.2 24.47,25.91 23.04,26.64 21.6,25.92 20.88,25.92 18.71,25.91 17.28,24.48 15.84,24.47 14.4,23.76 12.24,21.6 10.08,20.88 8.63,18.71 6.48,17.28 4.32,15.12 2.16,12.96 -0.72,10.08 -2.16,7.91 -5.03,5.04 -7.21,1.44 z m -757.34,632.81 -5.04,18.71 -6.48,16.56 -8.64,15.84 -10.79,13.68 -12.24,12.96 -14.4,11.52 -15.12,10.07 -16.56,9.36 -18,7.92 -19.43,6.48 -19.44,5.76 -20.88,5.04 -21.59,4.32 -21.6,3.6 -22.32,2.16 -23.04,2.16 -22.31,0.71 -23.04,0.73 -22.32,0.72 -23.03,-0.72 -21.6,-0.73 -21.6,-0.71 -20.88,-1.44 -20.15,-1.44 -19.44,-1.44 -18,-2.16 -17.28,-1.44 -15.84,-1.44 -14.39,-2.16 -12.96,-1.44 -10.8,-1.44 -9.36,-0.72 2.88,-149.74 1.44,-145.43 1.44,-144.69 2.88,-149.03 15.84,5.04 17.28,6.48 18.71,7.92 19.44,8.64 20.16,9.36 20.87,10.8 21.6,12.23 22.32,12.24 23.04,13.68 23.03,13.68 23.04,15.12 23.76,15.12 23.03,16.56 23.04,15.83 23.04,17.28 22.31,16.56 21.6,17.28 20.88,17.99 20.88,17.28 19.44,18 17.99,17.28 17.28,18 15.84,17.27 14.4,17.28 12.96,16.56 11.52,16.56 9.35,16.56 7.92,15.11 5.77,15.12 3.59,14.4 1.44,13.68 -1.44,12.96"
     transform="matrix(1.25,0,0,-1.25,60.630443,388.63701) scale(0.1,0.1)"
     id="path4"
     style="fill:#000000" />
</svg>
